<svg width="89" height="23" viewBox="0 0 89 23" fill="none" xmlns="http://www.w3.org/2000/svg">
<path d="M27.4746 4.63086L22.5527 18H21.3027L26.6738 3.78125H27.543L27.4746 4.63086ZM31.9473 18L27.0156 4.63086L26.9473 3.78125H27.8164L33.1973 18H31.9473ZM31.0684 12.9805V14.0156H23.5195V12.9805H31.0684ZM36.1953 9.68945V18H35.0332V7.43359H36.1465L36.1953 9.68945ZM35.9316 12.0625L35.4141 11.7695C35.4531 11.1445 35.5801 10.5586 35.7949 10.0117C36.0098 9.46484 36.2995 8.98307 36.6641 8.56641C37.0352 8.14974 37.4681 7.82422 37.9629 7.58984C38.4642 7.35547 39.0176 7.23828 39.623 7.23828C40.1504 7.23828 40.6224 7.3099 41.0391 7.45312C41.4557 7.59635 41.8105 7.82422 42.1035 8.13672C42.3965 8.44922 42.6178 8.84961 42.7676 9.33789C42.9238 9.82617 43.002 10.4219 43.002 11.125V18H41.8301V11.1152C41.8301 10.3861 41.7292 9.81641 41.5273 9.40625C41.3255 8.98958 41.0391 8.69336 40.668 8.51758C40.2969 8.3418 39.8574 8.25391 39.3496 8.25391C38.7897 8.25391 38.2982 8.3776 37.875 8.625C37.4583 8.86589 37.1068 9.18164 36.8203 9.57227C36.5404 9.95638 36.3255 10.3698 36.1758 10.8125C36.026 11.2487 35.9447 11.6654 35.9316 12.0625ZM52.9824 7.43359H54.0664V17.8145C54.0664 18.7324 53.8906 19.5202 53.5391 20.1777C53.194 20.8353 52.7025 21.3398 52.0645 21.6914C51.4329 22.043 50.6875 22.2188 49.8281 22.2188C49.3919 22.2188 48.9427 22.1504 48.4805 22.0137C48.0247 21.8835 47.5918 21.6816 47.1816 21.4082C46.778 21.1413 46.4329 20.8092 46.1465 20.4121L46.8008 19.6992C47.2305 20.2201 47.6895 20.6009 48.1777 20.8418C48.666 21.0892 49.1934 21.2129 49.7598 21.2129C50.4303 21.2129 50.9967 21.0794 51.459 20.8125C51.9277 20.5456 52.2826 20.1615 52.5234 19.6602C52.7708 19.1589 52.8945 18.5566 52.8945 17.8535V9.75781L52.9824 7.43359ZM45.5605 12.8242V12.6191C45.5605 11.7988 45.6517 11.0599 45.834 10.4023C46.0228 9.73828 46.293 9.17188 46.6445 8.70312C46.9961 8.22786 47.4225 7.86654 47.9238 7.61914C48.4316 7.36523 49.0046 7.23828 49.6426 7.23828C50.2546 7.23828 50.7982 7.33919 51.2734 7.54102C51.7487 7.74284 52.1589 8.03255 52.5039 8.41016C52.849 8.78776 53.1257 9.23698 53.334 9.75781C53.5488 10.2786 53.7051 10.8581 53.8027 11.4961V14.1035C53.7246 14.7025 53.5814 15.2526 53.373 15.7539C53.1647 16.2487 52.888 16.6816 52.543 17.0527C52.1979 17.4173 51.7812 17.7005 51.293 17.9023C50.8112 18.0977 50.2546 18.1953 49.623 18.1953C48.9915 18.1953 48.4251 18.0651 47.9238 17.8047C47.4225 17.5443 46.9961 17.1764 46.6445 16.7012C46.293 16.2194 46.0228 15.6497 45.834 14.9922C45.6517 14.3346 45.5605 13.612 45.5605 12.8242ZM46.7324 12.6191V12.8242C46.7324 13.4427 46.7943 14.0156 46.918 14.543C47.0417 15.0703 47.2305 15.5293 47.4844 15.9199C47.7383 16.3105 48.0605 16.6165 48.4512 16.8379C48.8418 17.0592 49.3008 17.1699 49.8281 17.1699C50.4987 17.1699 51.0618 17.043 51.5176 16.7891C51.9733 16.5286 52.3346 16.1868 52.6016 15.7637C52.8685 15.334 53.0638 14.8652 53.1875 14.3574V11.3203C53.1159 10.9753 53.0052 10.6237 52.8555 10.2656C52.7122 9.90755 52.5104 9.57878 52.25 9.2793C51.9961 8.97331 51.6706 8.72917 51.2734 8.54688C50.8828 8.35807 50.4076 8.26367 49.8477 8.26367C49.3138 8.26367 48.8483 8.37435 48.4512 8.5957C48.0605 8.81706 47.7383 9.1263 47.4844 9.52344C47.2305 9.91406 47.0417 10.373 46.918 10.9004C46.7943 11.4277 46.7324 12.0007 46.7324 12.6191ZM63.8906 15.5586V7.43359H65.0625V18H63.9395L63.8906 15.5586ZM64.1055 13.6055L64.7109 13.5859C64.7109 14.25 64.6328 14.862 64.4766 15.4219C64.3203 15.9818 64.0762 16.4701 63.7441 16.8867C63.4121 17.3034 62.9824 17.6257 62.4551 17.8535C61.9277 18.0814 61.293 18.1953 60.5508 18.1953C60.0365 18.1953 59.5645 18.1237 59.1348 17.9805C58.7116 17.8307 58.347 17.5964 58.041 17.2773C57.735 16.9583 57.4974 16.5449 57.3281 16.0371C57.1654 15.5293 57.084 14.9141 57.084 14.1914V7.43359H58.2461V14.2109C58.2461 14.7773 58.3079 15.2493 58.4316 15.627C58.5618 16.0046 58.7376 16.3073 58.959 16.5352C59.1868 16.763 59.4473 16.9258 59.7402 17.0234C60.0332 17.1211 60.349 17.1699 60.6875 17.1699C61.5469 17.1699 62.224 17.0039 62.7188 16.6719C63.2201 16.3398 63.5749 15.9036 63.7832 15.3633C63.998 14.8164 64.1055 14.2305 64.1055 13.6055ZM69.418 3V18H68.2559V3H69.418ZM79.0371 16.1055V10.6562C79.0371 10.1549 78.9329 9.72201 78.7246 9.35742C78.5163 8.99284 78.2103 8.71289 77.8066 8.51758C77.403 8.32227 76.9049 8.22461 76.3125 8.22461C75.7656 8.22461 75.2773 8.32227 74.8477 8.51758C74.4245 8.70638 74.0892 8.96354 73.8418 9.28906C73.6009 9.60807 73.4805 9.96289 73.4805 10.3535L72.3086 10.3438C72.3086 9.94661 72.4062 9.5625 72.6016 9.19141C72.7969 8.82031 73.0736 8.48828 73.4316 8.19531C73.7897 7.90234 74.2161 7.67122 74.7109 7.50195C75.2122 7.32617 75.7624 7.23828 76.3613 7.23828C77.1165 7.23828 77.7806 7.36523 78.3535 7.61914C78.9329 7.87305 79.3854 8.25391 79.7109 8.76172C80.0365 9.26953 80.1992 9.90755 80.1992 10.6758V15.7832C80.1992 16.1478 80.2253 16.5254 80.2773 16.916C80.3359 17.3066 80.4173 17.6289 80.5215 17.8828V18H79.2812C79.2031 17.7656 79.1413 17.4727 79.0957 17.1211C79.0566 16.763 79.0371 16.4245 79.0371 16.1055ZM79.3105 11.8477L79.3301 12.7461H77.0352C76.4362 12.7461 75.8991 12.8014 75.4238 12.9121C74.9551 13.0163 74.5579 13.1725 74.2324 13.3809C73.9069 13.5827 73.6562 13.8268 73.4805 14.1133C73.3112 14.3997 73.2266 14.7253 73.2266 15.0898C73.2266 15.4674 73.321 15.8125 73.5098 16.125C73.7051 16.4375 73.9785 16.6882 74.3301 16.877C74.6882 17.0592 75.1113 17.1504 75.5996 17.1504C76.2507 17.1504 76.8236 17.0299 77.3184 16.7891C77.8197 16.5482 78.2331 16.2324 78.5586 15.8418C78.8841 15.4512 79.1022 15.0247 79.2129 14.5625L79.7207 15.2363C79.6361 15.5618 79.4798 15.8971 79.252 16.2422C79.0306 16.5807 78.7409 16.8997 78.3828 17.1992C78.0247 17.4922 77.6016 17.7331 77.1133 17.9219C76.6315 18.1042 76.0846 18.1953 75.4727 18.1953C74.7826 18.1953 74.1803 18.0651 73.666 17.8047C73.1582 17.5443 72.7611 17.1895 72.4746 16.7402C72.1947 16.2845 72.0547 15.7702 72.0547 15.1973C72.0547 14.6764 72.1654 14.2109 72.3867 13.8008C72.6081 13.3841 72.9271 13.0326 73.3438 12.7461C73.7669 12.4531 74.2747 12.2318 74.8672 12.082C75.4661 11.9258 76.1367 11.8477 76.8789 11.8477H79.3105ZM84.4961 9.18164V18H83.334V7.43359H84.4668L84.4961 9.18164ZM88.2363 7.35547L88.207 8.42969C88.0768 8.41016 87.9499 8.39388 87.8262 8.38086C87.7025 8.36784 87.569 8.36133 87.4258 8.36133C86.918 8.36133 86.472 8.45573 86.0879 8.64453C85.7103 8.82682 85.3913 9.08398 85.1309 9.41602C84.8704 9.74154 84.6719 10.1257 84.5352 10.5684C84.3984 11.0046 84.3203 11.4733 84.3008 11.9746L83.8711 12.1406C83.8711 11.4505 83.9427 10.8092 84.0859 10.2168C84.2292 9.62435 84.4473 9.10677 84.7402 8.66406C85.0397 8.21484 85.4141 7.86654 85.8633 7.61914C86.319 7.36523 86.8529 7.23828 87.4648 7.23828C87.6146 7.23828 87.7611 7.2513 87.9043 7.27734C88.054 7.29688 88.1647 7.32292 88.2363 7.35547Z" fill="#F3EFEF"/>
<path d="M5.71655 11.9051H8.28345L7 8.83817L5.71655 11.9051ZM7 4L0 6.49107L1.07122 15.7221L7 19L12.9288 15.7221L14 6.49107L7 4ZM11.3859 15.4442H9.7488L8.86622 13.2545H5.14052L4.25794 15.4442H2.61742L7 5.65737L11.3859 15.4442Z" fill="#F3EFEF"/>
</svg>
