<svg width="83" height="17" viewBox="0 0 83 17" fill="none" xmlns="http://www.w3.org/2000/svg">
<path d="M41.6143 17V4.25503H42.3269V6.25996C42.4111 6.17114 42.4888 6.07679 42.5596 5.97758C42.8508 5.39074 43.3082 4.89665 43.8783 4.55322C44.4483 4.20979 45.1074 4.03125 45.7783 4.03853C47.4022 3.99147 48.7207 4.57507 49.4963 5.97758C49.9898 6.84884 50.2614 7.82211 50.2884 8.81608C50.3154 9.81006 50.097 10.7959 49.6514 11.6912C48.9292 13.2631 47.1453 14.0444 45.2354 13.7573C44.641 13.7081 44.0688 13.5153 43.571 13.1963C43.0731 12.8773 42.6654 12.4424 42.3851 11.9312V17H41.6143ZM42.3269 8.76377C42.3899 9.38502 42.4142 9.82742 42.4869 10.2604C42.768 11.9641 43.8054 12.976 45.4341 13.1596C46.1989 13.2816 46.9836 13.1424 47.6545 12.7657C48.3254 12.3889 48.841 11.7979 49.1134 11.0934C49.4264 10.3688 49.577 9.58785 49.5553 8.80238C49.5335 8.0169 49.3399 7.2449 48.9873 6.53764C48.6966 5.90622 48.2021 5.38381 47.5786 5.04929C46.9551 4.71476 46.2364 4.58631 45.5311 4.68331C44.8689 4.7299 44.238 4.97566 43.7263 5.38644C43.2146 5.79722 42.8475 6.35259 42.6759 6.97534C42.5241 7.56444 42.4076 8.16158 42.3269 8.76377ZM64.8241 10.4957C64.7161 11.3931 64.2761 12.2218 63.586 12.8278C62.8958 13.4338 62.0025 13.7758 61.0721 13.7902C58.0861 13.9361 56.6851 12.0112 56.4622 9.78977C56.3074 8.58342 56.5091 7.35921 57.0438 6.25996C57.4162 5.50594 58.0261 4.88654 58.7851 4.4914C59.5442 4.09627 60.4131 3.9459 61.266 4.06207C62.0769 4.12879 62.8456 4.4415 63.4633 4.9559C64.081 5.4703 64.5163 6.16033 64.7077 6.92827C64.8594 7.62769 64.9711 8.33474 65.0422 9.04616H57.1941C57.0487 11.0605 58.1636 12.6795 59.7439 13.0701C61.712 13.5408 63.394 12.7125 64.0048 10.8958C64.1406 10.4298 64.3878 10.364 64.8241 10.4957ZM57.1941 8.40138H64.2084C64.1648 6.25525 62.7881 4.70214 60.9218 4.67861C58.8083 4.64566 57.2862 6.1423 57.1941 8.40138ZM66.2686 10.5428H66.9569C66.9824 11.0346 67.1469 11.51 67.4326 11.9168C67.7182 12.3237 68.1139 12.6462 68.576 12.8489C69.1563 13.1025 69.7881 13.2257 70.4243 13.2094C71.0604 13.1931 71.6846 13.0377 72.2504 12.7548C72.5587 12.6199 72.817 12.3963 72.9903 12.1144C73.1637 11.8325 73.2438 11.5057 73.2199 11.1782C73.2376 10.8623 73.1488 10.5494 72.9668 10.2869C72.7849 10.0245 72.5197 9.82682 72.2116 9.72388C71.4554 9.45091 70.6507 9.30031 69.88 9.06028C69.078 8.83855 68.2939 8.56013 67.5338 8.22724C66.2928 7.63894 66.2153 5.34692 67.6211 4.62213C68.3409 4.22775 69.1509 4.01467 69.9774 4.00234C70.8038 3.99001 71.6202 4.17881 72.3522 4.55153C72.7956 4.78945 73.1538 5.15295 73.3789 5.59357C73.6041 6.03418 73.6856 6.53097 73.6125 7.01769H73.0211C73.0211 6.98946 72.9678 6.96592 72.9678 6.93768C72.8951 5.10689 71.3148 4.54212 69.6182 4.70214C69.1117 4.76279 68.6198 4.90767 68.164 5.13042C67.8901 5.25201 67.6619 5.45315 67.5108 5.70606C67.3597 5.95897 67.2932 6.25118 67.3205 6.54235C67.3213 6.83365 67.415 7.11756 67.5885 7.35517C67.7621 7.59278 68.0071 7.77245 68.29 7.86955C69.0365 8.13311 69.817 8.30254 70.5829 8.50963C71.1985 8.67435 71.8384 8.7826 72.4346 8.98027C72.8554 9.1142 73.2244 9.36907 73.4928 9.71112C73.7611 10.0532 73.9161 10.4663 73.9373 10.8958C74.0093 11.3664 73.9267 11.847 73.7013 12.2694C73.4759 12.6918 73.1192 13.0346 72.6818 13.249C71.0628 14.1385 68.3966 13.9032 67.209 12.7783C66.908 12.4844 66.67 12.1356 66.5085 11.7519C66.3471 11.3682 66.2656 10.9573 66.2686 10.5428ZM82.6628 7.01769H82.0181C82.0181 6.93298 81.9841 6.85768 81.9744 6.78708C81.964 6.31788 81.7878 5.86641 81.4754 5.50827C81.163 5.15013 80.7334 4.90708 80.2584 4.8198C79.3623 4.57016 78.4063 4.61483 77.539 4.94687C77.1962 5.04231 76.8943 5.24283 76.6786 5.5185C76.4628 5.79418 76.3446 6.13021 76.3417 6.47646C76.3296 6.81649 76.4388 7.15015 76.6507 7.4211C76.8627 7.69206 77.1644 7.8837 77.5051 7.96368C78.4746 8.25548 79.4683 8.43432 80.4523 8.69788C80.7712 8.77219 81.0852 8.86492 81.3927 8.97556C81.8519 9.13506 82.2509 9.42534 82.5374 9.80846C82.824 10.1916 82.9848 10.6497 82.999 11.123C83.0131 11.5963 82.8799 12.0627 82.6167 12.4613C82.3534 12.8599 81.9725 13.1722 81.5236 13.3572C80.8395 13.6588 80.0981 13.8184 79.3469 13.8257C78.5956 13.833 77.851 13.6878 77.1609 13.3996C76.5933 13.1619 76.1144 12.7612 75.7885 12.2513C75.4627 11.7414 75.3055 11.1468 75.3382 10.5475H75.9684C76.085 11.0936 76.3369 11.6038 76.7024 12.0341C77.0678 12.4643 77.5358 12.8016 78.0658 13.0167C78.5957 13.2318 79.1717 13.3182 79.7438 13.2685C80.3159 13.2187 80.8669 13.0344 81.3491 12.7313C81.6428 12.5831 81.8866 12.3563 82.0516 12.0777C82.2166 11.799 82.2958 11.4803 82.2798 11.1593C82.2944 10.8433 82.2025 10.5312 82.0179 10.2704C81.8333 10.0097 81.5662 9.8145 81.257 9.71447C80.5008 9.4415 79.6961 9.2956 78.9254 9.05557C78.1188 8.83727 77.3298 8.56199 76.5646 8.23195C75.3528 7.65306 75.2558 5.37986 76.6374 4.65507C77.3661 4.24417 78.192 4.02344 79.0347 4.01437C79.8774 4.0053 80.7081 4.20819 81.4461 4.6033C81.8681 4.84791 82.2078 5.20636 82.4238 5.63502C82.6398 6.06368 82.7229 6.54406 82.6628 7.01769ZM40.4364 13.5596C40.1826 13.6529 39.9024 13.6527 39.6487 13.5591C39.395 13.4654 39.1855 13.2848 39.0597 13.0513C38.2696 11.903 37.397 10.8064 36.5584 9.68623L36.1948 9.21559C35.1963 10.5146 34.1977 11.7618 33.2864 13.056C33.1676 13.2791 32.9694 13.4528 32.7286 13.5445C32.4878 13.6363 32.2209 13.64 31.9775 13.5549L35.7246 8.67435L32.2393 4.26444C32.4902 4.17649 32.7646 4.17528 33.0163 4.26103C33.268 4.34677 33.4815 4.51421 33.6208 4.73508C34.4304 5.88345 35.3271 6.98004 36.2191 8.14253C37.1159 6.98945 38.0029 5.88815 38.8319 4.7492C38.9513 4.5297 39.1496 4.36046 39.3891 4.27369C39.6287 4.18691 39.8927 4.18864 40.131 4.27856L38.7785 6.01993C38.1726 6.79649 37.5764 7.57776 36.9462 8.33549C36.8954 8.37963 36.8548 8.43368 36.827 8.49409C36.7992 8.55451 36.7848 8.61994 36.7848 8.68612C36.7848 8.75229 36.7992 8.81772 36.827 8.87814C36.8548 8.93856 36.8954 8.9926 36.9462 9.03675C38.1047 10.5287 39.2536 12.0253 40.4364 13.5596ZM56.3458 4.21738V4.87628C55.8555 4.84505 55.364 4.91399 54.9028 5.07864C54.4417 5.24328 54.0212 5.49997 53.6686 5.83215C53.3159 6.16432 53.039 6.5646 52.8555 7.00714C52.6721 7.44968 52.5862 7.92464 52.6036 8.40138V13.5784H51.9104V4.25503H52.589V6.16583C53.4276 4.77273 54.7219 4.25503 56.3458 4.21738ZM23 8.61317C23.1018 8.14253 23.1648 7.62953 23.3054 7.14947C24.144 4.25503 27.5615 3.05019 29.9125 4.84333C31.2892 5.89286 31.6334 7.38009 31.5655 9.05557H23.8095C23.6835 12.0489 25.9085 13.8561 28.754 12.9337C29.2155 12.7734 29.6287 12.504 29.9562 12.1498C30.2838 11.7957 30.5153 11.3679 30.6299 10.9052C30.7802 10.4346 31.0226 10.3545 31.4831 10.491C31.4072 11.064 31.1986 11.6128 30.8728 12.0962C30.547 12.5796 30.1126 12.985 29.6023 13.2819C28.759 13.7296 27.7915 13.907 26.8382 13.7887C25.8848 13.6703 24.9944 13.2623 24.2943 12.623C23.6016 11.8669 23.1828 10.9116 23.1018 9.90273C23.1018 9.74271 23.0388 9.58269 23.0048 9.43209C23.0016 9.15284 23 8.87987 23 8.61317ZM23.8192 8.41079H30.8335C30.7899 6.24113 29.3793 4.70214 27.4985 4.68802C25.4043 4.65978 23.9065 6.16583 23.8144 8.40138L23.8192 8.41079Z" fill="#F3EFEF"/>
<path d="M12.25 0H3.75C1.67893 0 0 1.67893 0 3.75V12.25C0 14.3211 1.67893 16 3.75 16H12.25C14.3211 16 16 14.3211 16 12.25V3.75C16 1.67893 14.3211 0 12.25 0Z" fill="#F3EFEF"/>
<path d="M14.25 11.4336C14.0681 11.5025 13.8672 11.5024 13.6853 11.4332C13.5035 11.3641 13.3532 11.2307 13.2631 11.0583C12.6966 10.2103 12.0711 9.40065 11.4699 8.57359L11.2093 8.22609C10.4934 9.18521 9.7775 10.1061 9.12419 11.0618C9.03909 11.2265 8.897 11.3548 8.72439 11.4225C8.55177 11.4903 8.3604 11.493 8.18594 11.4302L10.8722 7.82646L8.37356 4.57021C8.55342 4.50526 8.75019 4.50437 8.93063 4.56768C9.11108 4.63099 9.26415 4.75462 9.364 4.91771C9.94431 5.76571 10.5873 6.5754 11.2266 7.43378C11.8696 6.58234 12.5055 5.76915 13.0997 4.92815C13.1853 4.76606 13.3275 4.64108 13.4992 4.57701C13.6709 4.51293 13.8602 4.51423 14.0311 4.58065L13.0615 5.86646C12.6271 6.43984 12.1997 7.01671 11.7479 7.57621C11.7115 7.6088 11.6824 7.6487 11.6624 7.69331C11.6425 7.73793 11.6322 7.78625 11.6322 7.83512C11.6322 7.88399 11.6425 7.93231 11.6624 7.97693C11.6824 8.02154 11.7115 8.06144 11.7479 8.09403C12.5785 9.19565 13.4021 10.3007 14.25 11.4336ZM1.75 7.78128C1.823 7.43378 1.86813 7.05496 1.96894 6.70053C2.57013 4.56334 5.02006 3.67365 6.7055 4.99771C7.69244 5.77271 7.93919 6.87084 7.89056 8.10796H2.33037C2.24 10.3182 3.83506 11.6526 5.87494 10.9715C6.20584 10.8531 6.50205 10.6542 6.73684 10.3927C6.97164 10.1312 7.13762 9.81534 7.21981 9.47365C7.32756 9.12615 7.50131 9.06709 7.83144 9.16784C7.77708 9.5909 7.62751 9.99614 7.39397 10.3531C7.16044 10.71 6.84901 11.0093 6.48313 11.2286C5.8786 11.5592 5.18502 11.6902 4.50156 11.6028C3.8181 11.5154 3.17977 11.2142 2.67788 10.7421C2.18133 10.1838 1.8811 9.47836 1.823 8.73346C1.823 8.61534 1.77781 8.49715 1.7535 8.38596C1.7512 8.18441 1.75003 7.98284 1.75 7.78128ZM2.33731 7.63184H7.36581C7.3345 6.02984 6.32325 4.89346 4.97494 4.88309C3.47369 4.86221 2.39987 5.97421 2.33381 7.6249L2.33731 7.63184Z" fill="#141414"/>
</svg>
