<svg width="1400" height="565" viewBox="0 0 1400 565" fill="none" xmlns="http://www.w3.org/2000/svg">
<path d="M20 57C8.9543 57 0 65.9543 0 77V488C0 499.046 8.95431 508 20 508H55C66.0457 508 75 516.954 75 528V545C75 556.046 83.9543 565 95 565H1380C1391.05 565 1400 556.046 1400 545V275C1400 263.954 1391.05 255 1380 255H1343C1331.95 255 1323 246.046 1323 235V62C1323 50.9543 1331.95 42 1343 42H1380C1391.05 42 1400 33.0457 1400 22V20C1400 8.9543 1391.05 0 1380 0H588C576.954 0 568 8.95431 568 20V130C568 141.046 559.046 150 548 150H379C367.954 150 359 141.046 359 130V20C359 8.9543 350.046 0 339 0H95C83.9543 0 75 8.95431 75 20V37C75 48.0457 66.0457 57 55 57H20Z" fill="#C3D9C3"/>
</svg>
